<?xml version="1.0" encoding="UTF-8" standalone="no"?>
<!DOCTYPE svg PUBLIC "-//W3C//DTD SVG 1.1//EN"
 "http://www.w3.org/Graphics/SVG/1.1/DTD/svg11.dtd">
<!-- Generated by graphviz version 2.43.0 (0)
 -->
<!-- Title: poisson_line_process Pages: 1 -->
<svg width="668pt" height="182pt"
 viewBox="0.00 0.00 668.45 182.34" xmlns="http://www.w3.org/2000/svg" xmlns:xlink="http://www.w3.org/1999/xlink">
<g id="graph0" class="graph" transform="scale(1 1) rotate(0) translate(4 178.34)">
<title>poisson_line_process</title>
<!-- width -->
<g id="node1" class="node">
<title>width</title>
<ellipse fill="white" stroke="black" cx="45.5" cy="-156.34" rx="33.29" ry="18"/>
<text text-anchor="middle" x="45.5" y="-152.64" font-family="Roboto" font-size="14.00">width</text>
</g>
<!-- num_lines_abs -->
<g id="node2" class="node">
<title>num_lines_abs</title>
<ellipse fill="white" stroke="black" cx="197.19" cy="-87.34" rx="70.39" ry="18"/>
<text text-anchor="middle" x="197.19" y="-83.64" font-family="Roboto" font-size="14.00">num_lines_abs</text>
</g>
<!-- width&#45;&gt;num_lines_abs -->
<g id="edge1" class="edge">
<title>width&#45;&gt;num_lines_abs</title>
<path fill="none" stroke="black" d="M71.21,-144.95C93.42,-134.71 126.53,-119.45 153.09,-107.21"/>
<polygon fill="black" stroke="black" points="154.57,-110.38 162.19,-103.01 151.64,-104.02 154.57,-110.38"/>
</g>
<!-- num_shapes_abs -->
<g id="node3" class="node">
<title>num_shapes_abs</title>
<ellipse fill="white" stroke="black" cx="383.32" cy="-114.34" rx="79.89" ry="18"/>
<text text-anchor="middle" x="383.32" y="-110.64" font-family="Roboto" font-size="14.00">num_shapes_abs</text>
</g>
<!-- width&#45;&gt;num_shapes_abs -->
<g id="edge2" class="edge">
<title>width&#45;&gt;num_shapes_abs</title>
<path fill="none" stroke="black" d="M78.93,-157.43C122.2,-158.33 201.07,-158.05 267.38,-147.34 287.97,-144.01 310.11,-138.22 329.41,-132.4"/>
<polygon fill="black" stroke="black" points="330.69,-135.66 339.21,-129.37 328.63,-128.97 330.69,-135.66"/>
</g>
<!-- num_lines_unit -->
<g id="node4" class="node">
<title>num_lines_unit</title>
<ellipse fill="white" stroke="black" cx="383.32" cy="-60.34" rx="70.69" ry="18"/>
<text text-anchor="middle" x="383.32" y="-56.64" font-family="Roboto" font-size="14.00">num_lines_unit</text>
</g>
<!-- width&#45;&gt;num_lines_unit -->
<g id="edge3" class="edge">
<title>width&#45;&gt;num_lines_unit</title>
<path fill="none" stroke="black" d="M77.87,-152.16C130.42,-144.86 233.81,-129.16 267.38,-114.34 285.68,-106.26 285.7,-96.69 303.38,-87.34 310.48,-83.59 318.21,-80.19 325.96,-77.18"/>
<polygon fill="black" stroke="black" points="327.22,-80.44 335.38,-73.69 324.79,-73.88 327.22,-80.44"/>
</g>
<!-- num_shapes_unit -->
<g id="node5" class="node">
<title>num_shapes_unit</title>
<ellipse fill="white" stroke="black" cx="579.86" cy="-114.34" rx="80.69" ry="18"/>
<text text-anchor="middle" x="579.86" y="-110.64" font-family="Roboto" font-size="14.00">num_shapes_unit</text>
</g>
<!-- width&#45;&gt;num_shapes_unit -->
<g id="edge4" class="edge">
<title>width&#45;&gt;num_shapes_unit</title>
<path fill="none" stroke="black" d="M77.76,-161.14C92.63,-163.18 110.69,-165.33 126.99,-166.34 276.57,-175.6 315.77,-167.91 463.27,-141.34 480.56,-138.23 499.16,-134.19 516.27,-130.19"/>
<polygon fill="black" stroke="black" points="517.23,-133.56 526.15,-127.85 515.62,-126.75 517.23,-133.56"/>
</g>
<!-- num_lines_abs&#45;&gt;num_shapes_abs -->
<g id="edge12" class="edge">
<title>num_lines_abs&#45;&gt;num_shapes_abs</title>
<path fill="none" stroke="black" d="M258.48,-96.18C273.54,-98.39 289.89,-100.79 305.62,-103.09"/>
<polygon fill="black" stroke="black" points="305.45,-106.61 315.85,-104.59 306.46,-99.68 305.45,-106.61"/>
</g>
<!-- num_lines_abs&#45;&gt;num_lines_unit -->
<g id="edge9" class="edge">
<title>num_lines_abs&#45;&gt;num_lines_unit</title>
<path fill="none" stroke="black" d="M258.48,-78.5C275.4,-76.02 293.96,-73.3 311.43,-70.74"/>
<polygon fill="black" stroke="black" points="312.19,-74.16 321.58,-69.25 311.18,-67.24 312.19,-74.16"/>
</g>
<!-- num_shapes_abs&#45;&gt;num_shapes_unit -->
<g id="edge10" class="edge">
<title>num_shapes_abs&#45;&gt;num_shapes_unit</title>
<path fill="none" stroke="black" d="M463.45,-114.34C471.92,-114.34 480.57,-114.34 489.15,-114.34"/>
<polygon fill="black" stroke="black" points="489.17,-117.84 499.17,-114.34 489.17,-110.84 489.17,-117.84"/>
</g>
<!-- height -->
<g id="node6" class="node">
<title>height</title>
<ellipse fill="white" stroke="black" cx="45.5" cy="-18.34" rx="36" ry="18"/>
<text text-anchor="middle" x="45.5" y="-14.64" font-family="Roboto" font-size="14.00">height</text>
</g>
<!-- height&#45;&gt;num_lines_abs -->
<g id="edge5" class="edge">
<title>height&#45;&gt;num_lines_abs</title>
<path fill="none" stroke="black" d="M72.57,-30.36C94.73,-40.57 126.98,-55.44 152.99,-67.43"/>
<polygon fill="black" stroke="black" points="151.71,-70.7 162.26,-71.7 154.64,-64.34 151.71,-70.7"/>
</g>
<!-- height&#45;&gt;num_shapes_abs -->
<g id="edge6" class="edge">
<title>height&#45;&gt;num_shapes_abs</title>
<path fill="none" stroke="black" d="M80.42,-22.88C133.7,-30.32 234.35,-45.76 267.38,-60.34 285.68,-68.42 285.7,-77.99 303.38,-87.34 309.81,-90.74 316.75,-93.84 323.75,-96.64"/>
<polygon fill="black" stroke="black" points="322.71,-99.99 333.3,-100.25 325.19,-93.44 322.71,-99.99"/>
</g>
<!-- height&#45;&gt;num_lines_unit -->
<g id="edge7" class="edge">
<title>height&#45;&gt;num_lines_unit</title>
<path fill="none" stroke="black" d="M81.18,-17.21C124.9,-16.37 202.21,-16.81 267.38,-27.34 288.6,-30.77 311.45,-36.82 331.14,-42.81"/>
<polygon fill="black" stroke="black" points="330.24,-46.2 340.83,-45.83 332.33,-39.51 330.24,-46.2"/>
</g>
<!-- height&#45;&gt;num_shapes_unit -->
<g id="edge8" class="edge">
<title>height&#45;&gt;num_shapes_unit</title>
<path fill="none" stroke="black" d="M79.47,-12.72C151.74,-1.84 328.41,16.88 463.27,-33.34 497.22,-45.98 530.51,-71.04 552.57,-89.95"/>
<polygon fill="black" stroke="black" points="550.35,-92.66 560.18,-96.61 554.96,-87.39 550.35,-92.66"/>
</g>
<!-- intensity -->
<g id="node7" class="node">
<title>intensity</title>
<ellipse fill="white" stroke="black" cx="45.5" cy="-87.34" rx="45.49" ry="18"/>
<text text-anchor="middle" x="45.5" y="-83.64" font-family="Roboto" font-size="14.00">intensity</text>
</g>
<!-- intensity&#45;&gt;num_lines_abs -->
<g id="edge11" class="edge">
<title>intensity&#45;&gt;num_lines_abs</title>
<path fill="none" stroke="black" d="M91,-87.34C99.21,-87.34 107.99,-87.34 116.87,-87.34"/>
<polygon fill="black" stroke="black" points="116.89,-90.84 126.89,-87.34 116.89,-83.84 116.89,-90.84"/>
</g>
</g>
</svg>
